## -show_streams 命令
查看多媒体文件流信息
### 输入命令：
``ffprobe -show_streams foo.mp4``
- 结果如下：
```shell
[STREAM]
index=0
codec_name=h264
codec_long_name=H.264 / AVC / MPEG-4 AVC / MPEG-4 part 10
profile=High
codec_type=video
codec_time_base=1/40
codec_tag_string=avc1
codec_tag=0x31637661
width=640
height=360
coded_width=640
coded_height=368
has_b_frames=0
sample_aspect_ratio=1:1
display_aspect_ratio=16:9
pix_fmt=yuv420p
level=21
color_range=unknown
color_space=unknown
color_transfer=unknown
color_primaries=unknown
chroma_location=left
field_order=unknown
timecode=N/A
refs=1
is_avc=true
nal_length_size=4
id=N/A
r_frame_rate=20/1
avg_frame_rate=20/1
time_base=1/20000
start_pts=0
start_time=0.000000
duration_ts=24640000
duration=1232.000000
bit_rate=670719
max_bit_rate=N/A
bits_per_raw_sample=8
nb_frames=24640
nb_read_frames=N/A
nb_read_packets=N/A
DISPOSITION:default=1
DISPOSITION:dub=0
DISPOSITION:original=0
DISPOSITION:comment=0
DISPOSITION:lyrics=0
DISPOSITION:karaoke=0
DISPOSITION:forced=0
DISPOSITION:hearing_impaired=0
DISPOSITION:visual_impaired=0
DISPOSITION:clean_effects=0
DISPOSITION:attached_pic=0
DISPOSITION:timed_thumbnails=0
TAG:language=und
TAG:handler_name=VideoHandler
[/STREAM]
[STREAM]
index=1
codec_name=aac
codec_long_name=AAC (Advanced Audio Coding)
profile=LC
codec_type=audio
codec_time_base=1/44100
codec_tag_string=mp4a
codec_tag=0x6134706d
sample_fmt=fltp
sample_rate=44100
channels=2
channel_layout=stereo
bits_per_sample=0
id=N/A
r_frame_rate=0/0
avg_frame_rate=0/0
time_base=1/44100
start_pts=0
start_time=0.000000
duration_ts=54331392
duration=1232.004354
bit_rate=109378
max_bit_rate=109378
bits_per_raw_sample=N/A
nb_frames=53058
nb_read_frames=N/A
nb_read_packets=N/A
DISPOSITION:default=1
DISPOSITION:dub=0
DISPOSITION:original=0
DISPOSITION:comment=0
DISPOSITION:lyrics=0
DISPOSITION:karaoke=0
DISPOSITION:forced=0
DISPOSITION:hearing_impaired=0
DISPOSITION:visual_impaired=0
DISPOSITION:clean_effects=0
DISPOSITION:attached_pic=0
DISPOSITION:timed_thumbnails=0
TAG:language=und
TAG:handler_name=SoundHandler
[/STREAM]
```

注：字段说明，见：表2-6 和 表2-7 => P45。该输出是按照 key-value 格式显示的。还可以输出其他格式：

### 更多的格式支持
xml + ini + json + csv + flat

#### 用参数：-print_format 或 -of

##### 命令如下：
```shell
# xml
ffprobe -of xml -show_streams foo.mp4

# ini
ffprobe -of ini -show_streams foo.mp4

# json
ffprobe -of json -show_streams foo.mp4

# csv
ffprobe -of csv -show_streams foo.mp4

# flat
ffprobe -of flat -show_streams foo.mp4
```

### select_streams

可以只查看音频（a）、视频（v）、字幕（s）的信息，例如配合 show_frames 查看视频的 frames 信息
```shell
ffprobe -show_frames -select_streams v -of json foo.mp4
```
结果如下：
```shell
...
{
            "media_type": "video",
            "stream_index": 0,
            "key_frame": 0,
            "pkt_pts": 4025000,
            "pkt_pts_time": "201.250000",
            "pkt_dts": 4025000,
            "pkt_dts_time": "201.250000",
            "best_effort_timestamp": 4025000,
            "best_effort_timestamp_time": "201.250000",
            "pkt_duration": 1000,
            "pkt_duration_time": "0.050000",
            "pkt_pos": "19820328",
            "pkt_size": "4140",
            "width": 640,
            "height": 360,
            "pix_fmt": "yuv420p",
            "sample_aspect_ratio": "1:1",
            "pict_type": "P",
            "coded_picture_number": 4025,
            "display_picture_number": 0,
            "interlaced_frame": 0,
            "top_field_first": 0,
            "repeat_pict": 0,
            "chroma_location": "left"
        }
...
```